# xmcd
# Copyright (C) 1995-1998 Ti Kan
#
# Track frame offsets:
#       150
#       15109
#       34074
#
# Disc length: 690 seconds
#
# Revision: 0
# Processed by: cddbd v1.5.2PL0 Copyright (c) Steve Scherf et al.
# Submitted via: CD-Import v1.0
#
DISCID=1202b003
DTITLE=Ricky Martin - 
DYEAR=14
DGENRE=
TTITLE0=Dr. Beat
TTITLE1=Human
TTITLE2=Adrenalina
EXTD=
EXTT0=
EXTT1=
EXTT2=
PLAYORDER=
